<?xml version="1.0" encoding="UTF-8" standalone="no"?>
<svg width="355px" height="252px" viewBox="0 0 355 252" version="1.1" xmlns="http://www.w3.org/2000/svg" xmlns:xlink="http://www.w3.org/1999/xlink" xmlns:sketch="http://www.bohemiancoding.com/sketch/ns">
    <!-- Generator: Sketch 3.3.3 (12072) - http://www.bohemiancoding.com/sketch -->
    <title>ruby</title>
    <desc>Created with Sketch.</desc>
    <defs></defs>
    <g id="Page-1" stroke="none" stroke-width="1" fill="none" fill-rule="evenodd" sketch:type="MSPage">
        <g id="Detailed" sketch:type="MSArtboardGroup" transform="translate(-123.000000, -77.000000)">
            <g id="ruby" sketch:type="MSLayerGroup" transform="translate(138.000000, 87.000000)">
                <path d="M65,0 L162.5,0 L91,64.8571429 L65,0 Z" id="Shape" opacity="0.0299999993" fill="#000000" sketch:type="MSShapeGroup"></path>
                <path d="M260,0 L162.5,0 L234,64.8571429 L260,0 Z" id="Shape" opacity="0.0700000003" fill="#000000" sketch:type="MSShapeGroup"></path>
                <path d="M0,64.8571429 L65,0 L91,64.8571429 L0,64.8571429 Z" id="Shape" opacity="0.25" fill="#FFFFFF" sketch:type="MSShapeGroup"></path>
                <path d="M91,64.8571429 L162.5,0 L234,64.8571429 L91,64.8571429 Z" id="Shape" opacity="0.150000006" fill="#FFFFFF" sketch:type="MSShapeGroup"></path>
                <path d="M260,0 L325,64.8571429 L234,64.8571429 L260,0 Z" id="Shape" opacity="0.100000001" fill="#FFFFFF" sketch:type="MSShapeGroup"></path>
                <path d="M0,64.8571429 L91,64.8571429 L162.5,227 L0,64.8571429 Z" id="Shape" opacity="0.049999997" fill="#FFFFFF" sketch:type="MSShapeGroup"></path>
                <path d="M91,64.8571429 L234,64.8571429 L162.5,227 L91,64.8571429 Z" id="Shape" opacity="0.0599999987" fill="#000000" sketch:type="MSShapeGroup"></path>
                <path d="M325,64.8571429 L234,64.8571429 L162.5,227 L325,64.8571429 Z" id="Shape" opacity="0.119999997" fill="#000000" sketch:type="MSShapeGroup"></path>
                <path d="M0,64.8571429 L65,0 L162.5,0 L260,0 L325,64.8571429 L162.5,227 L0,64.8571429 Z" id="Shape" stroke="#FFFFFF" stroke-width="10" sketch:type="MSShapeGroup"></path>
            </g>
        </g>
    </g>
</svg>