<svg width="355" height="252" viewBox="0 0 355 252" version="1.1" xmlns="http://www.w3.org/2000/svg" xmlns:xlink="http://www.w3.org/1999/xlink"><title>ruby</title><desc>Created with Sketch.</desc><g id="Page-1" stroke="none" stroke-width="1" fill="none" fill-rule="evenodd"><g id="Detailed" transform="translate(-123.000000, -77.000000)"><g id="ruby" transform="translate(138.000000, 87.000000)"><path d="M65,0 L162.5,0 L91,64.8571429 L65,0 Z" id="Shape" opacity=".03" fill="#000"/><path d="M260,0 L162.5,0 L234,64.8571429 L260,0 Z" id="Shape" opacity=".07" fill="#000"/><path d="M0,64.8571429 L65,0 L91,64.8571429 L0,64.8571429 Z" id="Shape" opacity=".25" fill="#FFF"/><path d="M91,64.8571429 L162.5,0 L234,64.8571429 L91,64.8571429 Z" id="Shape" opacity=".15" fill="#FFF"/><path d="M260,0 L325,64.8571429 L234,64.8571429 L260,0 Z" id="Shape" opacity=".1" fill="#FFF"/><path d="M0,64.8571429 L91,64.8571429 L162.5,227 L0,64.8571429 Z" id="Shape" opacity=".05" fill="#FFF"/><path d="M91,64.8571429 L234,64.8571429 L162.5,227 L91,64.8571429 Z" id="Shape" opacity=".06" fill="#000"/><path d="M325,64.8571429 L234,64.8571429 L162.5,227 L325,64.8571429 Z" id="Shape" opacity=".12" fill="#000"/><path d="M0,64.8571429 L65,0 L162.5,0 L260,0 L325,64.8571429 L162.5,227 L0,64.8571429 Z" id="Shape" stroke="#FFF" stroke-width="10"/></g></g></g></svg>